# xmcd
#
# Track frame offsets:
#	150
#	14343
#	25590
#	42542
#	60776
#	72859
#	90340
#	102994
#	113816
#	128713
#
# Disc length: 1991 seconds
#
# Revision: 0
# Processed by: cddbd v1.5.1PL0 Copyright (c) Steve Scherf et al.
# Submitted via: dBpowerAMP V4.0
#
DISCID=7307c50a
DTITLE=Hank Williams Jr. - Maverick
DYEAR=1991
DGENRE=Country
TTITLE0=Come On Over To The Country
TTITLE1=Lyin' Jukebox
TTITLE2=Wild Weekend
TTITLE3=The Count Song
TTITLE4=I Know What You've Got Up Your Sleeve
TTITLE5=Hotel Whiskey  with Clint Black
TTITLE6=Fax Me A Beer
TTITLE7=Low Down Blues
TTITLE8=A Little Less Talk And A Lot More Action
TTITLE9=Cut Bank, Montana
EXTD=
EXTT0=
EXTT1=
EXTT2=
EXTT3=
EXTT4=
EXTT5=
EXTT6=
EXTT7=
EXTT8=
EXTT9=
PLAYORDER=
